<?xml version="1.0" encoding="UTF-8" standalone="no"?>
<!-- Created with Inkscape (http://www.inkscape.org/) -->

<svg
   xmlns:dc="http://purl.org/dc/elements/1.1/"
   xmlns:cc="http://creativecommons.org/ns#"
   xmlns:rdf="http://www.w3.org/1999/02/22-rdf-syntax-ns#"
   xmlns:svg="http://www.w3.org/2000/svg"
   xmlns="http://www.w3.org/2000/svg"
   xmlns:sodipodi="http://sodipodi.sourceforge.net/DTD/sodipodi-0.dtd"
   xmlns:inkscape="http://www.inkscape.org/namespaces/inkscape"
   width="104.8212mm"
   height="60.435989mm"
   viewBox="0 0 371.41368 214.14328"
   id="svg2"
   version="1.1"
   inkscape:version="0.92.4 (5da689c313, 2019-01-14)"
   sodipodi:docname="anyscript_maual.svg"
   inkscape:export-filename="C:\Users\mel\Documents\AnyBodySource\ams\Doc\AnyScriptSphinxReference\_static\AnyLogo.png"
   inkscape:export-xdpi="63.5"
   inkscape:export-ydpi="63.5">
  <defs
     id="defs4" />
  <sodipodi:namedview
     id="base"
     pagecolor="#ffffff"
     bordercolor="#666666"
     borderopacity="1.0"
     inkscape:pageopacity="0.0"
     inkscape:pageshadow="2"
     inkscape:zoom="1.6753333"
     inkscape:cx="111.79097"
     inkscape:cy="70.471992"
     inkscape:document-units="px"
     inkscape:current-layer="g163"
     showgrid="false"
     showguides="true"
     inkscape:guide-bbox="true"
     fit-margin-top="3"
     fit-margin-left="15"
     fit-margin-right="15"
     fit-margin-bottom="3"
     inkscape:window-width="1920"
     inkscape:window-height="1017"
     inkscape:window-x="-8"
     inkscape:window-y="-8"
     inkscape:window-maximized="1"
     inkscape:snap-global="false"
     inkscape:pagecheckerboard="true">
    <sodipodi:guide
       position="224.74368,-78.099869"
       orientation="0,1"
       id="guide4220"
       inkscape:locked="false" />
    <sodipodi:guide
       position="308.30915,-196.28531"
       orientation="0,1"
       id="guide4222"
       inkscape:locked="false" />
    <sodipodi:guide
       position="415.75048,-78.099869"
       orientation="0,1"
       id="guide4224"
       inkscape:locked="false" />
    <sodipodi:guide
       position="566.83849,153.4989"
       orientation="0,1"
       id="guide4226"
       inkscape:locked="false" />
    <sodipodi:guide
       position="317.8472,58.756966"
       orientation="1,0"
       id="guide4280"
       inkscape:locked="false" />
    <sodipodi:guide
       position="858.91047,450.63571"
       orientation="1,0"
       id="guide4282"
       inkscape:locked="false" />
    <sodipodi:guide
       position="415.36228,232.51151"
       orientation="0,1"
       id="guide1646"
       inkscape:locked="false" />
    <sodipodi:guide
       position="53.161064,63.233687"
       orientation="1,0"
       id="guide1655"
       inkscape:locked="false" />
  </sodipodi:namedview>
  <metadata
     id="metadata7">
    <rdf:RDF>
      <cc:Work
         rdf:about="">
        <dc:format>image/svg+xml</dc:format>
        <dc:type
           rdf:resource="http://purl.org/dc/dcmitype/StillImage" />
        <dc:title />
      </cc:Work>
    </rdf:RDF>
  </metadata>
  <g
     inkscape:label="Layer 1"
     inkscape:groupmode="layer"
     id="layer1"
     transform="translate(9.8610716,-5.6423432)">
    <g
       transform="translate(-35.397959,-83.543981)"
       id="layer1-0"
       inkscape:label="Layer 1">
      <g
         id="g163">
        <text
           id="text4200-3"
           y="272.38269"
           x="80.623962"
           style="font-style:normal;font-variant:normal;font-weight:normal;font-stretch:normal;font-size:3.34892511px;line-height:0%;font-family:Corbel;-inkscape-font-specification:'Corbel, Normal';text-align:start;letter-spacing:0px;word-spacing:0px;writing-mode:lr-tb;text-anchor:start;fill:#999999;fill-opacity:1;stroke:#a7a6a6;stroke-width:0.30693069px;stroke-linecap:butt;stroke-linejoin:miter;stroke-opacity:1"
           xml:space="preserve"
           transform="scale(0.97879509,1.0216643)"><tspan
             style="font-style:normal;font-variant:normal;font-weight:normal;font-stretch:normal;font-size:66.74295807px;line-height:125%;font-family:Corbel;-inkscape-font-specification:'Corbel, Normal';font-variant-ligatures:normal;font-variant-caps:small-caps;font-variant-numeric:normal;font-feature-settings:normal;text-align:start;writing-mode:lr-tb;text-anchor:start;fill:#999999;fill-opacity:1;stroke:#a7a6a6;stroke-width:0.30693069px;stroke-opacity:1"
             y="272.38269"
             x="80.623962"
             id="tspan4202-2"
             sodipodi:role="line">Manuals</tspan></text>
        <g
           transform="matrix(0.79992076,0,0,0.79992076,43.481092,5.8303256)"
           id="g1425">
          <path
             inkscape:connector-curvature="0"
             id="path143"
             style="fill:#953337;fill-opacity:1;fill-rule:evenodd;stroke-width:2.97847247"
             d="m 248.26641,149.18912 h -14.28207 c -0.78275,0 -1.36951,0.39137 -1.95656,0.78274 -0.58706,0.58676 -0.78245,1.17382 -0.78245,1.95656 l 0.58676,82.95403 -38.73801,-83.93246 c -0.19569,-0.58675 -0.39137,-1.17381 -0.97813,-1.3695 -0.19569,-0.39137 -0.78274,-0.39137 -1.3695,-0.39137 h -17.99951 c -0.78274,0 -1.3698,0.39137 -1.76087,0.78274 -0.58706,0.58676 -0.97843,1.17382 -0.97843,1.95656 v 113.27935 c 0,0.58706 0.39137,1.3695 0.97843,1.95656 0.39107,0.58676 0.97813,0.78244 1.76087,0.78244 h 14.47776 c 0.78245,0 1.3695,-0.19568 1.95656,-0.78244 0.39107,-0.58706 0.78244,-1.3695 0.78244,-1.95656 l -0.78244,-82.56296 38.73801,83.73678 c 0,0.58705 0.58676,0.78274 0.78245,0.97842 0.58705,0.39108 1.17411,0.58676 1.76087,0.58676 h 17.80382 c 0.97843,0 1.3695,-0.19568 1.95656,-0.78244 0.58705,-0.58706 0.78244,-1.3695 0.78244,-1.95656 V 151.92842 c 0,-0.78274 -0.19539,-1.3698 -0.78244,-1.95656 -0.58706,-0.39137 -0.97813,-0.78274 -1.95656,-0.78274 z" />
          <path
             inkscape:connector-curvature="0"
             id="path145"
             style="fill:#952c36;fill-opacity:1;fill-rule:evenodd;stroke-width:2.97847247"
             d="m 301.28679,147.81962 c -0.58706,-0.78244 -0.97813,-0.97813 -1.56519,-1.3695 -0.78244,-0.19569 -1.3695,-0.19569 -2.15224,0.39137 l -13.69502,7.04319 c -0.78274,0.19569 -1.3698,0.78275 -1.3698,1.56519 -0.19538,0.78274 -0.19538,1.3695 0.39138,2.15225 l 36.19469,64.75913 v 42.84652 c 0,0.58706 0.19569,1.3695 0.78274,1.95656 0.39108,0.58676 0.97813,0.78244 1.76058,0.78244 h 14.47805 c 0.78245,0 1.36951,-0.19568 1.95626,-0.78244 0.58706,-0.58706 0.78275,-1.3695 0.78275,-1.95656 v -42.84652 l 36.39038,-64.75913 c 0.19568,-0.39138 0.19568,-0.97843 0.19568,-1.36951 0,-0.39137 0,-0.97842 -0.19568,-1.3695 -0.19569,-0.39137 -0.78275,-0.78274 -1.17382,-0.97843 l -13.69531,-7.04319 c -0.58706,-0.58706 -1.3695,-0.58706 -1.95656,-0.39137 -0.78274,0.39137 -1.3695,0.58706 -1.56519,1.3695 l -27.782,53.60744 z" />
          <path
             inkscape:connector-curvature="0"
             id="path147"
             style="fill:#953337;fill-opacity:1;fill-rule:evenodd;stroke-width:2.97847247"
             d="m 81.770993,118.08136 c -0.587056,0.39137 -0.782444,0.78274 -1.173816,1.56519 L 44.011112,263.4469 v 1.67628 c 0.05004,0.15161 0.113182,0.31036 0.195685,0.47596 0.391372,0.39137 0.978131,0.97813 1.760873,0.97813 l 14.282073,4.1088 c 0.391372,0 0.782743,0.39108 1.3698,0 0.391073,0 0.782444,-0.19568 1.369501,-0.78274 0.391074,-0.19568 0.586759,-0.78244 0.586759,-1.17381 L 74.532114,223.1437 h 35.020876 l 11.1517,45.58582 c 0,0.39137 0.19569,0.97813 0.39137,1.17381 0.39137,0.58706 0.97813,0.78274 1.3695,0.78274 0.39138,0.39108 0.97813,0.39108 1.36951,0 l 14.28237,-3.71743 c 0.78244,-0.39137 1.3695,-0.97813 1.56518,-1.3695 0.58676,-0.78274 0.58676,-1.3695 0.58676,-2.15224 L 103.48793,119.64655 c -0.19569,-0.78245 -0.58706,-1.17382 -0.97843,-1.56519 -0.55906,-0.3729 -1.11841,-0.57008 -1.67747,-0.58706 -0.0277,-5.9e-4 -0.0554,0 -0.0834,0 H 83.336181 c -0.03693,0 -0.07089,-5.9e-4 -0.106332,0 -0.727938,0.017 -1.272403,0.21416 -1.458856,0.58706 z m -2.739003,86.67146 13.108257,-54.38958 12.717183,54.38958 z" />
          <path
             inkscape:connector-curvature="0"
             id="path152"
             style="fill:#999999;fill-opacity:1;fill-rule:evenodd;stroke-width:2.97847247"
             d="m 329.06849,138.03742 c -3.91282,0 -6.84751,1.36951 -9.58651,3.91282 -2.34793,2.73901 -3.71743,5.86938 -3.71743,9.39113 0,3.91282 1.3695,7.23888 3.71743,9.58681 2.739,2.739 5.67369,4.1085 9.58651,4.1085 3.52175,0 6.84781,-1.3695 9.58681,-4.1085 2.34793,-2.34793 3.71743,-5.67399 3.71743,-9.58681 0,-3.52175 -1.3695,-6.65212 -3.71743,-9.39113 -2.739,-2.54331 -6.06506,-3.91282 -9.58681,-3.91282 z" />
        </g>
      </g>
    </g>
  </g>
</svg>
